<?xml version="1.0" encoding="UTF-8"?>
<svg id="Capa_1" xmlns="http://www.w3.org/2000/svg" version="1.1" viewBox="0 0 1024 1024">
  <!-- Generator: Adobe Illustrator 30.3.0, SVG Export Plug-In . SVG Version: 2.1.3 Build 182)  -->
  <defs>
    <style>
      .st0 {
        fill: #ff281b;
      }

      .st1 {
        fill: #0a0b0b;
      }

      .st2 {
        fill: #1a1a1a;
      }
    </style>
  </defs>
  <rect class="st1" width="1024" height="1024" rx="231.89" ry="231.89"/>
  <path class="st2" d="M246.21,997.83h531.59c121.53,0,220.04-98.52,220.04-220.04v-271.28c-136.73-98.42-304.51-156.4-485.83-156.4S162.89,408.1,26.17,506.52v271.28c0,121.53,98.52,220.04,220.04,220.04Z"/>
  <g>
    <polygon class="st0" points="789.07 334 802.13 374.2 844.4 374.2 810.2 399.05 823.27 439.25 789.07 414.4 754.87 439.25 767.93 399.05 733.73 374.2 776 374.2 789.07 334"/>
    <polygon class="st0" points="466.62 334 646.21 334 729.65 481.72 844.4 481.72 931.64 635.48 636.9 635.48 466.62 334"/>
    <polygon class="st0" points="92.36 635.48 138.57 553.69 97.8 481.72 179.37 481.49 262.71 334 441.4 334 611.63 635.48 432.99 635.48 352.05 492.18 315.82 556.34 361.07 635.48 92.36 635.48"/>
  </g>
</svg>