<?xml version="1.0" encoding="UTF-8"?>
<svg id="Capa_1" data-name="Capa 1" xmlns="http://www.w3.org/2000/svg" viewBox="0 0 148.7 204.34">
  <path d="M122.71,111.75c0,27.36-22.18,49.53-49.53,49.53s-49.53-22.18-49.53-49.53,22.18-49.53,49.53-49.53,49.53,22.18,49.53,49.53ZM58.89,96.22l3.77-3.12-.3-16.25,2.27-6.13c-8.5,2.02-15.7,6.53-21.38,12.96l-4.72,6c2.5-.1,4.69-.01,6.59.54l13.76,6ZM104.61,89.13l4.26,1.99-5.87-7.54c-5.43-6.97-13.79-10.99-22.35-12.98l2.29,5.2-.22,17.12c1.11.99,3.52,2.67,4.52,3.12l17.38-6.91ZM70.28,76.93l-.11,14.54,5.05.04.11-14.54-5.05-.04ZM42.05,97.55l-1.75,4.56,12.36,4.75,1.75-4.56-12.36-4.75ZM104.08,102.79l.61-2.26-1.29-2.79-11.91,4.99,1.54,3.88,11.05-3.82ZM86.02,112.34c0-7.32-5.93-13.25-13.25-13.25s-13.25,5.93-13.25,13.25,5.93,13.25,13.25,13.25,13.25-5.93,13.25-13.25ZM53.27,120.75l-1.54-5.74-15.67-6.44-3.09-2.64c-.6,8.93.12,18.56,5.11,26.68l4.02,6.54c.6-1.89,1.34-4.41,2.04-5.42l9.13-12.98ZM101.21,133.19c1.06,1.46,2,3.83,2.74,6,7.39-9.34,10.82-21.61,9.16-33.68-2.23,2.17-4.27,3.98-6.16,4.64l-13,4.56-1.75,6.12,9,12.36ZM91.43,141.46l4.17-2.82-8.42-11.55-3.21,3.12,7.46,11.25ZM57.93,127.25l-7.54,11.2,4.38,2.95,7.54-11.2-4.38-2.95ZM90.79,149.65c-3.41-1.21-4.53-1.9-5.4-3.2l-8.81-13.17-7.42.13-8.42,12.97c-.76,1.18-3.28,2.44-5.3,3.14,10.91,5.86,24.55,5.5,35.35.13Z"/>
  <path d="M102.4,168.59c.18.66.55,1.87,1.4,2.22-.51,1.68-2.94,4.93-4.75,5.5l-9.9,3.09c-12.18,3.8-25.37,2.63-37.46-1.48C13.09,164.77-4.57,121.09,10.73,84.12c4.51-10.91,11.45-19.95,20.57-27.45,16.62-13.67,38.38-17.79,59.3-12.52,13.86,3.49,25.48,11.3,34.73,22.18s13.52,23.03,15.49,36.69c.38,2.6-1.37,5.23-3.83,5.69-1.7.32-4.69-1.88-4.88-3.93-1.14-12.42-5.73-23.28-13.46-32.87l-9.21-8.83c-23.29-18.48-56.86-16.32-77.88,4.9-16.82,16.97-22.24,43.17-13.7,65.6,11.8,32.88,48.44,48.54,80.24,33.76l4.3,1.24Z"/>
  <path d="M103.79,170.8c.15-.48-.86-2.06-1.4-2.22-.12-1.57-.18-5.79,1.02-6.87l7.76-7.05c1.6-1.45,3.07-2.3,5.21-3.51l.96-3.44,6.42-11.6,2.29-3.38c-.16-1.32-.49-4.22-.33-5.55l1.42-11.94c.28-2.34,2.65-5.43,5.18-5.39l10.37.16c3.53.05,6.1,3.44,6,6.95-.18,6.54-.23,13.51-3.01,19.05-1.04,2.06-1.39,2.81-1.77,5.09-1.01,6.14-4.34,12.79-8.08,18.1-.73,1.04-3.69,2.57-4.69,3.17-.71,2.23-1.97,5.93-3.64,7.25l-12.11,9.56c-1.58,1.24-5.83-.37-6.82-1.87l-3.25-4.93c-.27-.41-1.63-1.3-1.53-1.59ZM139.68,130.08l1.12-12.4-6.13-.24-1.28,11.22,6.29,1.42ZM130.16,153.11l5.62-10.84-5.53-1.75-5,8.89,4.92,3.71ZM121.82,156.78l.55-.5-.55.5ZM123.12,157l-.52.52.51.48.52-.5-.51-.49ZM124.19,158.03l.07,1.04-.07-1.04ZM113.45,170.88l6.99-5.97-4.42-4.03-5.8,4.84,3.23,5.15Z"/>
  <circle cx="72.8" cy="112.46" r="8.11"/>
</svg>