<?xml version="1.0" encoding="UTF-8"?>
<svg id="Capa_1" data-name="Capa 1" xmlns="http://www.w3.org/2000/svg" viewBox="0 0 174.95 211.81">
  <path d="M48.07,122.21c.33-.1,1.2-.58,1.3-.85l3.33-1.8c4.67-2.02,9.82.55,11.2,6.05l3.66-7.37c-2.3,1.71-6.79,1.37-7.8-1.15-.49-1.23.06-4.39.54-5.56l1.12-1.17,3.24-.35c1.12-.18,3.99,1.36,4.04,2.48l.22,4.59,6.68-5.55,5.3-3.21c1.59-.96,3.59-3.19,3.94-4.79,1.44-6.65-9.34-10.45-1.58-20.61l-.36-11.84c-.11-3.43,1.45-6.35,3.69-8.71h-3.9c-5.69,13.45-22.7,23.13-25.57,16.74-.68-1.52.29-4.18,1.57-5.63,5.65-6.41,8.49-13.71,9.81-22.34h-6.15c-2.01.02-6.4-1.9-6.48-3.86l-.5-12.33c-.1-2.57,2.2-6.64,5.12-6.66l10.05-.09,7-.03,31.03.27c11.74.1,20.56,11.67,22.23,22.52.64,4.15-2.27,7.48-5.85,7.54l-8.8.14.56,3.21c1.68.67,5.08,3.41,5.06,5.12l-.26,17.27,18,27.06c3.03,4.55,6.39,10.64,6.41,16.26l.12,46.66c.02,6.79-5.17,13.69-12.6,13.7l-56.95.04c-6.16,0-12.89-5.27-12.92-11.68l-.2-45.3c-2.07,2.5-4.53,4.42-7.72,4.75-2.22.23-5.79-1.76-7.4-4.37-1.44-2.34-.88-6.33-.16-9.15ZM69.39,36.12h-6.23s.01,7.09.01,7.09h6.23s-.01-7.09-.01-7.09ZM108.9,55.61c.18-1.95,3.98-4.8,5.82-4.9l7.83-.42c-2.05-7.47-7.94-12.28-15.12-14.04h-30.87s.22,7.35.22,7.35c10.04,3.23,17.32,8.3,18.95,18.42l12.55.08.61-6.49ZM81.75,53.48l-5.53-2.28-2.61,12.36,2.98-5.48c.7-1.29,2.87-3.14,3.93-3.6l1.23-1ZM82.23,53.81l-.73,1.07,2.54.2-1.81-1.26ZM113.72,69.84l-23.03.03v9.11s23.05-.03,23.05-.03v-9.11ZM77.99,180.03l54.41-.07c3.51,0,5.68-3.56,5.68-6.69l-.06-42.12c0-5.4-2.4-10.69-5.32-15.07l-19.38-29.11-20.77-.08c-1.22,0-3.46,1.07-3.69,2.01-.19.75.25,2.56.73,3.18,4.29,5.61,5.11,13.86.07,19.32-6.18,6.69-18.27,8.16-18.29,20.66l-.07,42.15c0,3.41,3.11,5.81,6.69,5.81ZM56.64,127.2c0-.62-.5-1.12-1.12-1.12s-1.12.5-1.12,1.12.5,1.12,1.12,1.12,1.12-.5,1.12-1.12Z"/>
  <path d="M49.38,121.36c-.49-.15-1.07.81-1.3.85l-5.17,1.53c-4.49-.72-7.74-4.01-7.41-8.06s3.07-7.69,8.3-7.65c1.76.01,5.08,1.8,6.06,3.31s1.39,5.03.78,6.66l-1.25,3.36ZM43.02,115.2l-.5.5.5.5.5-.5-.5-.5Z"/>
  <path d="M61.43,110.36c-.29.26-1.03.96-1.12,1.17l-5.69-.39c-6.48-.12-9.48-7.73-7.64-13.14s8.16-8.79,13.92-6c3.41,1.66,5.67,5.81,5.56,9.65-.09,3.05-2.42,6.4-5.03,8.71ZM58.75,101.34c0-1.23-1-2.23-2.23-2.23s-2.23,1-2.23,2.23,1,2.23,2.23,2.23,2.23-1,2.23-2.23Z"/>
  <path d="M56.55,144.11c0,4.72-3.82,8.54-8.54,8.54s-8.54-3.82-8.54-8.54,3.82-8.54,8.54-8.54,8.54,3.82,8.54,8.54ZM48,145.16l-.06-1.9.06,1.9Z"/>
  <path d="M123.12,170.96c-4.48.2-7.34-1.25-8.22-5.85l-20,.1c-1.34,3.59-3.6,5.66-7.49,5.74-4.25.08-9.26-2.32-9.24-7.14l.04-14.56c.34-.79,1.29-3.39,1.23-3.24l-2.34-4.22c-.5-.9,1.45-3.22,2.46-3.33l4.47-.46,2.81-7.68c.68-1.87,4.44-4.28,6.44-4.28l22.39-.02c3.46,0,7.22,2.28,8.37,5.49l1.65,4.64c1.08,3.02,5.7,1.54,6.31,4.06.26,1.08-.51,3.22-1.02,4.48-.29.72.19,2.85.2,3.65l.3,13.92c.1,4.62-3.49,8.49-8.36,8.71ZM119.36,141.35l-2.87-8.23-22.82.02-3.17,8.23,28.86-.03ZM118.21,157.99c3.91,0,3.3,5.37,3.81,5.35l1.97-.05c.45-.01.55-1.48.54-1.95l-.24-11.4c-.75,1.73-1.29,4.42-2.22,4.82-1.5.65-4.36.98-6.41,1.02-1.33.03-2.69-4.07-1.53-4.8,2.5-1.55,6.45-1.92,8.44-1.34.46.13,1.55-.65,1.09-.81l-2.09-.69-33.23-.08c-1.58.16-2.93,1.44-3.13,3.28l2.76-2.32,6.66.93c.9.12,1.89,2.72,1.45,3.51s-2.57,2.26-3.56,2.28c-2.4.04-5.06-1.11-7.62-2.77v8.93c0,1.56,2.73,1.8,2.5-.12.86-2.84,2.73-3.82,4.96-3.82h25.83Z"/>
</svg>